/vscmnt/brussel_pixiu_data/_data_brussel/112/vsc11236/PredSimResults/SUBJ07opt3D/expIG/worker_11.mot
version=1
nRows=7
nColumns=50
inDegrees=yes
endheader
                time	         pelvis_tilt	         pelvis_list	     pelvis_rotation	           pelvis_tx	           pelvis_ty	           pelvis_tz	       hip_flexion_r	     hip_adduction_r	      hip_rotation_r	        knee_angle_r	       ankle_angle_r	         mtp_angle_r	       hip_flexion_l	     hip_adduction_l	      hip_rotation_l	        knee_angle_l	       ankle_angle_l	         mtp_angle_l	    lumbar_extension	      lumbar_bending	     lumbar_rotation	 ercspn_r/activation	 intobl_r/activation	 extobl_r/activation	    abd_r/activation	    add_r/activation	hamstrings_r/activation	bifemsh_r/activation	glut_max_r/activation	iliopsoas_r/activation	rect_fem_r/activation	  vasti_r/activation	gastroc_r/activation	 soleus_r/activation	tib_ant_r/activation	 ercspn_l/activation	 intobl_l/activation	 extobl_l/activation	    abd_l/activation	    add_l/activation	hamstrings_l/activation	bifemsh_l/activation	glut_max_l/activation	iliopsoas_l/activation	rect_fem_l/activation	  vasti_l/activation	gastroc_l/activation	 soleus_l/activation	tib_ant_l/activation	
          0.00000000	         -6.15136070	         -1.69470341	          7.96813310	          0.00000000	          0.83992052	         -0.00837993	         33.45182840	         -1.03016800	         -3.76089206	         -7.93655212	          4.74446108	          0.33009043	        -14.21475477	         -1.81974704	          3.06381503	        -12.98128123	          3.38813639	         35.20725765	        -13.31834137	          1.21694452	         -3.32836334	          0.12610332	          0.13572384	          0.00999999	          0.02512082	          0.17379513	          0.14721681	          0.21533814	          0.10443906	          0.05687931	          0.00999999	          0.00999999	          0.01488250	          0.01336058	          0.52359049	          0.08661660	          0.00999999	          0.00999999	          0.01617914	          0.09989012	          0.02316525	          0.03496817	          0.01544323	          0.24641975	          0.15037107	          0.02505833	          0.24576989	          0.20643017	          0.00999999	
          0.00935282	         -6.10478736	         -1.62578573	          8.00588379	          0.01791748	          0.83801617	         -0.00800914	         33.38856273	         -0.90484273	         -3.50453979	        -10.06596193	          4.24926644	          0.29269689	        -15.38607247	         -1.92401361	          2.77005662	        -12.92048518	          1.85464668	         36.04520811	        -13.10061294	          1.43034701	         -3.51284018	          0.11343190	          0.12209739	          0.00999999	          0.07874258	          0.18575809	          0.12736336	          0.18629795	          0.17582826	          0.04920865	          0.00999999	          0.00999999	          0.01287547	          0.01155879	          0.61967215	          0.14707767	          0.00999999	          0.00999999	          0.01399725	          0.10068997	          0.02004122	          0.09141234	          0.01336058	          0.27785510	          0.13009224	          0.02167900	          0.21262571	          0.18111802	          0.00999999	
          0.01870565	         -6.05955637	         -1.54454558	          7.99588800	          0.03566125	          0.83627437	         -0.00759036	         33.29055777	         -0.79507840	         -3.26504458	        -12.10260138	          3.71523591	          0.27501833	        -16.22023396	         -1.98371471	          2.44716001	        -13.47369182	          0.45526266	         36.54432505	        -12.92272811	          1.63892306	         -3.67333663	          0.13657059	          0.10563151	          0.00999999	          0.15655841	          0.22495279	          0.11018732	          0.16117407	          0.22712224	          0.04257244	          0.00999999	          0.00999999	          0.01113910	          0.00999999	          0.72408146	          0.17173971	          0.00999999	          0.00999999	          0.01210960	          0.10735615	          0.02088416	          0.07908461	          0.01155879	          0.41341766	          0.11254819	          0.01875540	          0.18395131	          0.15669270	          0.00999999	
          0.02805847	         -6.01590965	         -1.45670802	          7.94151010	          0.05306366	          0.83488936	         -0.00711565	         33.22022072	         -0.68176531	         -3.05591555	        -14.14280105	          3.22038001	          0.24039289	        -16.62745635	         -2.00568408	          2.11573222	        -14.77033053	         -0.81004485	         36.63765646	        -12.80231425	          1.84712976	         -3.80630558	          0.16836125	          0.09138619	          0.00999999	          0.21937787	          0.25806151	          0.09532761	          0.13943836	          0.28887109	          0.03683118	          0.00999999	          0.00999999	          0.00999999	          0.00999999	          0.72596520	          0.22453846	          0.00999999	          0.00999999	          0.01047651	          0.11471933	          0.02260570	          0.06841937	          0.00999999	          0.47122352	          0.09737010	          0.01622608	          0.15914390	          0.13556134	          0.00999999	
          0.03741129	         -5.97259509	         -1.36939172	          7.84814415	          0.07003354	          0.83402499	         -0.00660447	         33.21795388	         -0.56345631	         -2.87348453	        -16.31938732	          3.11866854	          0.20384609	        -16.55316043	         -2.00119132	          1.79493360	        -16.87045535	         -2.02903996	         36.32202095	        -12.74258592	          2.06298245	         -3.90944317	          0.19566681	          0.07906198	          0.00999999	          0.26132047	          0.27828117	          0.08247187	          0.12063390	          0.33130017	          0.03186418	          0.00999999	          0.03185794	          0.00999999	          0.00999999	          0.68100962	          0.29478729	          0.00999999	          0.00999999	          0.00999999	          0.12770303	          0.02334195	          0.08018663	          0.00999999	          0.40767499	          0.08423890	          0.01403785	          0.13768198	          0.11727973	          0.00999999	
          0.04676412	         -5.92906938	         -1.28231109	          7.71536390	          0.08656432	          0.83379837	         -0.00607111	         33.24857821	         -0.43977865	         -2.71474576	        -18.56029298	          3.39774980	          0.17465532	        -15.99365347	         -1.97277720	          1.48798806	        -19.72788682	         -3.36661510	         35.60695669	        -12.73310020	          2.28223739	         -3.97973744	          0.21350231	          0.06839980	          0.00999999	          0.27280265	          0.29614228	          0.07134983	          0.10436539	          0.34575570	          0.02756702	          0.00999999	          0.05188532	          0.00999999	          0.00999999	          0.58916963	          0.33052082	          0.00999999	          0.00999999	          0.00999999	          0.14990069	          0.02436014	          0.09148928	          0.00999999	          0.35269652	          0.07287857	          0.01214473	          0.11911438	          0.10146356	          0.00999999	
          0.05611694	         -5.88617846	         -1.19149909	          7.54418974	          0.10272688	          0.83419714	         -0.00552639	         33.23140058	         -0.30882901	         -2.56222363	        -20.70997826	          3.97529023	          0.15972788	        -14.98370408	         -1.91993361	          1.20575614	        -23.22648223	         -4.98432316	         34.47673899	        -12.75349919	          2.49536493	         -4.01820918	          0.18470969	          0.05917550	          0.00999999	          0.26778389	          0.30269057	          0.06172769	          0.09029082	          0.33691193	          0.02384937	          0.00999999	          0.08871578	          0.00999999	          0.00999999	          0.50971505	          0.36436610	          0.00999999	          0.00999999	          0.00999999	          0.15993251	          0.02233088	          0.08218882	          0.00999999	          0.30513236	          0.06305027	          0.01050691	          0.10305079	          0.08778032	          0.00999999	
